<?xml version="1.0" standalone="no"?>
<!DOCTYPE svg PUBLIC "-//W3C//DTD SVG 20010904//EN"
 "http://www.w3.org/TR/2001/REC-SVG-20010904/DTD/svg10.dtd">
<svg version="1.0" xmlns="http://www.w3.org/2000/svg"
 width="500.000000pt" height="295.000000pt" viewBox="0 0 500.000000 295.000000"
 preserveAspectRatio="xMidYMid meet">

<g transform="translate(0.000000,295.000000) scale(0.100000,-0.100000)"
fill="#000000" stroke="none">
<path d="M3175 2077 l-18 -57 -61 0 c-60 -1 -61 -1 -38 -18 13 -9 35 -26 49
-38 l26 -21 -16 -48 c-24 -69 -22 -71 28 -30 47 39 47 39 108 -8 42 -33 44
-30 20 38 -18 54 -21 47 55 104 l27 20 -62 1 -61 0 -19 57 -20 58 -18 -58z"/>
<path d="M755 1778 c-16 -6 -44 -24 -62 -40 l-32 -31 -3 34 c-3 30 -7 34 -35
37 l-33 3 0 -250 0 -251 35 0 35 0 0 159 c0 89 5 172 11 188 16 42 59 82 96
89 34 6 87 -9 101 -30 4 -6 9 -99 12 -206 l5 -195 35 0 35 0 5 180 c4 150 8
184 23 206 36 53 117 66 164 25 l28 -24 3 -196 4 -196 34 0 34 0 0 209 c0 200
-1 209 -23 242 -18 27 -34 37 -77 48 -68 17 -124 4 -173 -38 l-32 -29 -19 25
c-35 47 -106 64 -171 41z"/>
<path d="M1446 1778 c-58 -16 -128 -90 -146 -153 -37 -131 8 -278 100 -325
115 -59 252 -19 296 87 20 47 18 53 -19 53 -28 0 -36 -5 -50 -36 -29 -61 -131
-82 -197 -42 -30 18 -58 67 -62 108 l-3 35 175 0 174 0 14 -57 c16 -65 68
-133 119 -154 72 -31 164 -11 210 44 l23 27 0 -40 c0 -130 -74 -200 -186 -175
-24 5 -49 21 -65 39 -18 23 -34 31 -57 31 -21 0 -32 -5 -32 -15 0 -82 139
-144 259 -115 62 15 95 39 124 93 21 40 22 55 25 320 l3 277 -35 0 c-35 0 -36
-1 -36 -36 l0 -36 -28 29 c-96 104 -295 33 -319 -113 -8 -46 -17 -43 -31 13
-22 82 -118 156 -197 152 -11 -1 -38 -6 -59 -11z m130 -83 c29 -19 64 -72 64
-97 0 -16 -13 -18 -139 -18 l-140 0 9 30 c27 95 128 137 206 85z m438 2 c63
-41 82 -193 36 -275 -28 -50 -63 -72 -115 -72 -54 0 -90 24 -115 75 -18 38
-21 59 -19 123 4 88 28 134 83 158 36 17 97 12 130 -9z"/>
<path d="M2319 1775 c-50 -16 -108 -71 -110 -105 -1 -11 -2 -26 -3 -32 -1 -7
13 -13 32 -14 28 -1 35 4 46 30 21 49 42 61 112 61 70 0 97 -16 109 -67 11
-43 -19 -63 -127 -82 -145 -26 -192 -65 -191 -157 1 -91 51 -134 153 -134 50
0 75 6 108 24 23 14 42 28 42 33 0 19 16 6 27 -22 12 -32 47 -46 88 -36 20 5
25 13 25 35 0 23 -5 30 -22 33 -23 3 -23 6 -28 183 -5 195 -10 214 -61 240
-43 23 -145 28 -200 10z m187 -300 c-8 -70 -21 -91 -72 -115 -70 -35 -143 -21
-164 29 -14 34 0 74 32 95 19 12 137 39 197 45 11 1 12 -10 7 -54z"/>
<path d="M2755 1771 c-50 -22 -108 -86 -126 -137 -21 -61 -17 -181 8 -229 47
-90 123 -135 226 -135 116 0 218 75 234 173 l6 37 -77 0 c-58 0 -76 -3 -76
-14 0 -23 -38 -63 -66 -70 -66 -17 -114 40 -114 134 0 83 39 140 95 140 27 0
63 -22 74 -46 10 -22 16 -24 86 -24 l75 0 -6 28 c-16 66 -62 120 -126 146 -52
22 -162 20 -213 -3z"/>
<path d="M3555 1774 c-16 -8 -40 -25 -52 -36 l-23 -21 0 31 0 32 -75 0 -75 0
0 -250 0 -251 78 3 77 3 3 161 c2 155 3 163 27 188 29 31 73 34 106 7 23 -19
24 -24 27 -191 l3 -171 77 3 77 3 0 195 c-1 181 -2 198 -22 236 -14 26 -35 47
-57 58 -43 20 -132 21 -171 0z"/>
<path d="M3975 1772 c-92 -44 -147 -133 -148 -236 0 -81 16 -133 55 -180 97
-118 320 -116 407 5 46 63 43 69 -39 69 -60 0 -72 -3 -94 -25 -52 -52 -154
-18 -172 58 l-6 27 177 0 178 0 -5 65 c-7 83 -48 158 -109 200 -38 26 -54 30
-124 33 -62 2 -89 -2 -120 -16z m156 -105 c20 -15 39 -51 39 -71 0 -13 -15
-16 -89 -16 -50 0 -92 4 -95 8 -7 11 20 62 42 78 21 17 82 17 103 1z"/>
<path d="M3122 1533 l3 -248 78 -3 77 -3 0 251 0 250 -80 0 -80 0 2 -247z"/>
<path d="M3076 1195 c-15 -22 -15 -26 -2 -31 15 -6 74 33 75 49 1 4 -12 7 -28
7 -20 0 -34 -8 -45 -25z"/>
<path d="M2690 1080 l0 -130 30 0 30 0 1 93 c0 100 5 98 36 -18 17 -63 21 -70
43 -70 23 0 27 7 46 82 11 45 23 86 27 89 4 4 7 -34 7 -85 l0 -92 28 3 27 3 3
128 3 127 -50 0 c-49 0 -50 -1 -61 -37 -5 -21 -13 -55 -16 -75 -4 -21 -10 -38
-13 -38 -4 0 -15 34 -25 75 l-18 75 -49 0 -49 0 0 -130z"/>
<path d="M3730 1190 c0 -16 7 -20 30 -20 23 0 30 4 30 20 0 16 -7 20 -30 20
-23 0 -30 -4 -30 -20z"/>
<path d="M3050 1144 c-19 -8 -40 -34 -40 -51 0 -16 44 -11 66 8 17 14 44 5 44
-16 0 -9 -9 -15 -24 -15 -31 0 -78 -18 -88 -33 -13 -21 -9 -53 10 -70 12 -11
37 -15 90 -15 l72 1 0 76 c0 48 -5 84 -13 95 -14 19 -88 31 -117 20z m68 -126
c-2 -17 -10 -23 -27 -23 -32 0 -39 23 -9 34 35 15 40 13 36 -11z"/>
<path d="M3242 1138 c-54 -27 -33 -89 36 -105 22 -5 38 -16 40 -26 4 -22 -30
-23 -48 -2 -7 8 -23 15 -36 15 -30 0 -31 -23 -4 -50 25 -25 95 -27 128 -4 43
30 20 104 -32 104 -12 0 -31 6 -42 14 -18 14 -18 15 -1 22 10 3 23 2 30 -5 12
-12 67 -15 67 -3 -2 39 -90 65 -138 40z"/>
<path d="M3552 1125 c-35 -29 -45 -76 -27 -122 16 -38 41 -53 90 -53 38 0 85
35 85 65 0 21 -56 20 -64 -1 -3 -9 -15 -14 -28 -12 -20 3 -23 9 -23 48 0 38 3
45 21 48 11 2 27 -4 34 -13 14 -17 46 -20 54 -6 17 27 -38 71 -88 71 -13 0
-38 -11 -54 -25z"/>
<path d="M3921 1141 c-7 -5 -31 -6 -51 -4 l-38 5 1 -93 2 -94 28 -3 c26 -3 27
-2 27 45 0 62 8 90 27 97 30 12 43 -14 43 -81 0 -64 0 -64 28 -61 26 3 27 6
30 63 4 69 -2 98 -24 119 -17 18 -51 21 -73 7z"/>
<path d="M4104 1140 c-33 -13 -54 -50 -54 -96 0 -35 5 -47 31 -68 43 -36 97
-36 134 2 27 27 27 27 5 30 -12 2 -35 -2 -51 -8 -23 -10 -32 -10 -44 0 -28 23
-15 30 51 30 l67 0 -6 38 c-11 65 -71 97 -133 72z m57 -40 c30 -16 23 -30 -16
-30 -37 0 -43 8 -23 28 15 15 15 15 39 2z"/>
<path d="M3732 1048 l3 -93 28 -3 27 -3 0 95 0 96 -30 0 -31 0 3 -92z"/>
<path d="M4272 988 c3 -29 6 -33 33 -33 27 0 30 4 33 33 3 31 2 32 -33 32 -35
0 -36 -1 -33 -32z"/>
</g>
</svg>
